<svg width="25" height="24" viewBox="0 0 25 24" fill="none" xmlns="http://www.w3.org/2000/svg">
<path d="M3.375 7.00006C3.375 4.23864 5.61358 2.00006 8.375 2.00006H14.959C15.2253 2.00006 15.4806 2.10626 15.6683 2.29513L21.0843 7.74455C21.2705 7.9319 21.375 8.18532 21.375 8.44948V17.0001C21.375 19.7615 19.1364 22.0001 16.375 22.0001H8.375C5.61358 22.0001 3.375 19.7615 3.375 17.0001V7.00006Z" stroke="white" stroke-width="1.5"/>
<path d="M7.375 11.0001L8.375 11.0001" stroke="white" stroke-width="1.5" stroke-linecap="round"/>
<path d="M7.375 13.0001L8.375 13.0001" stroke="white" stroke-width="1.5" stroke-linecap="round"/>
<path d="M7.375 15.0001L8.375 15.0001" stroke="white" stroke-width="1.5" stroke-linecap="round"/>
<path d="M10.375 13.0001H17.375" stroke="white" stroke-width="1.5" stroke-linecap="round"/>
<path d="M10.375 11.0001H17.375" stroke="white" stroke-width="1.5" stroke-linecap="round"/>
<path d="M10.375 15.0001H17.375" stroke="white" stroke-width="1.5" stroke-linecap="round"/>
<path d="M15.375 2.24148C15.375 2.15239 15.4827 2.10778 15.5457 2.17077L21.2043 7.82935C21.2673 7.89235 21.2227 8.00006 21.1336 8.00006H18.375C16.7181 8.00006 15.375 6.65692 15.375 5.00006V2.24148Z" stroke="white" stroke-width="1.5"/>
</svg>
