<svg width="32" height="34" viewBox="0 0 32 34" fill="none" xmlns="http://www.w3.org/2000/svg">
<path fill-rule="evenodd" clip-rule="evenodd" d="M14.4092 7.16345C15.2916 6.29415 16.7084 6.29415 17.5908 7.16345L25.3241 14.7822C25.7565 15.2082 26 15.7899 26 16.3969V25C26 26.1046 25.1046 27 24 27H19.5714C18.4669 27 17.5714 26.1046 17.5714 25V19.4H14.4286V25C14.4286 26.1046 13.5331 27 12.4286 27H8C6.89543 27 6 26.1046 6 25V16.3969C6 15.7899 6.24348 15.2082 6.6759 14.7822L14.4092 7.16345ZM16.1871 8.58818C16.0833 8.48591 15.9167 8.48591 15.8128 8.58818L8.07952 16.2069C8.02864 16.2571 8 16.3255 8 16.3969V25H12.4286V18.4C12.4286 17.8477 12.8763 17.4 13.4286 17.4H18.5714C19.1237 17.4 19.5714 17.8477 19.5714 18.4V25H24V16.3969C24 16.3255 23.9714 16.2571 23.9205 16.2069L16.1871 8.58818Z" fill="white" fill-opacity="0.6"/>
</svg>
