<svg width="60" height="61" viewBox="0 0 60 61" fill="none" xmlns="http://www.w3.org/2000/svg">
<path d="M32.5 13C32.5 11.6193 31.3807 10.5 30 10.5C28.6193 10.5 27.5 11.6193 27.5 13C27.5 14.3807 28.6193 15.5 30 15.5C31.3807 15.5 32.5 14.3807 32.5 13Z" stroke="black" stroke-width="5" stroke-linecap="round" stroke-linejoin="round"/>
<path d="M32.5 30.5C32.5 29.1193 31.3807 28 30 28C28.6193 28 27.5 29.1193 27.5 30.5C27.5 31.8807 28.6193 33 30 33C31.3807 33 32.5 31.8807 32.5 30.5Z" stroke="black" stroke-width="5" stroke-linecap="round" stroke-linejoin="round"/>
<path d="M32.5 48C32.5 46.6193 31.3807 45.5 30 45.5C28.6193 45.5 27.5 46.6193 27.5 48C27.5 49.3807 28.6193 50.5 30 50.5C31.3807 50.5 32.5 49.3807 32.5 48Z" stroke="black" stroke-width="5" stroke-linecap="round" stroke-linejoin="round"/>
</svg>
