<svg xmlns="http://www.w3.org/2000/svg" width="49.391" height="37.129" viewBox="0 0 49.391 37.129">
  <g id="Group_40" data-name="Group 40" transform="translate(-74.621 -1754.155)">
    <path id="Path_106" data-name="Path 106" d="M106.643,1791.281q-6.351,0-12.7,0a4.487,4.487,0,0,1-4.6-4.6c-.012-4.487,0-8.974,0-13.461,0-.868-.017-1.737,0-2.6a4.489,4.489,0,0,1,4.659-4.6q12.728-.008,25.457,0A4.46,4.46,0,0,1,124,1770.51q.028,8.142,0,16.283a4.483,4.483,0,0,1-4.655,4.491q-6.35,0-12.7,0Zm.244-15.933v-.008c-4.722,0-9.445.007-14.168-.009-.5,0-.64.146-.637.646.02,3.547.007,7.093.01,10.64a1.7,1.7,0,0,0,1.886,1.878q12.839,0,25.678,0c1.364,0,1.978-.63,1.979-2,0-3.492-.018-6.984.012-10.477,0-.576-.17-.683-.7-.681C116.261,1775.356,111.574,1775.348,106.887,1775.348Zm14.695-4.23c.2-1.525-.488-2.322-1.916-2.323q-4.832-.006-9.664,0-8.036,0-16.072,0a1.659,1.659,0,0,0-1.793,1.39c-.163.857-.1.931.764.931h28.681Z" fill="#ccc"/>
    <path id="Path_107" data-name="Path 107" d="M109.315,1763.159h-3.5c-4.053,0-8.107-.019-12.161,0a6.95,6.95,0,0,0-6.938,5.448,7.861,7.861,0,0,0-.183,1.773c-.015,5.032-.009,10.063-.011,15.094a6.92,6.92,0,0,0,.679,2.989c.067.142.128.288.22.5a4.33,4.33,0,0,1-4.061-1.009,5.013,5.013,0,0,1-1.1-1.459q-3.536-7.057-7.014-14.144a4.524,4.524,0,0,1,2.208-6.538q11.235-5.553,22.477-11.094a4.517,4.517,0,0,1,6.352,2.15q1.5,3.039,2.991,6.086A1.369,1.369,0,0,1,109.315,1763.159Z" fill="#ccc"/>
    <path id="Path_108" data-name="Path 108" d="M98.989,1785.7a2.938,2.938,0,0,1-4.289.1,2.853,2.853,0,0,1-.115-3.892c1.137-1.328,2.626-1.347,4.416-.057,1.79-1.279,3.258-1.273,4.383.019a2.862,2.862,0,0,1-.053,3.9C102.2,1786.97,100.649,1786.955,98.989,1785.7Z" fill="#ccc"/>
  </g>
</svg>
