<svg width="32" height="32" viewBox="0 0 32 32" fill="none" xmlns="http://www.w3.org/2000/svg">
<path fill-rule="evenodd" clip-rule="evenodd" d="M8.43099 19.484C9.34724 18.5338 10.5899 18 11.8857 18H20.1143C21.4101 18 22.6528 18.5338 23.569 19.484C24.4853 20.4342 25 21.7229 25 23.0667V25.2C25 25.6418 24.6546 26 24.2286 26H7.77143C7.34538 26 7 25.6418 7 25.2V23.0667C7 21.7229 7.51474 20.4342 8.43099 19.484ZM11.8857 19.6C10.9991 19.6 10.1489 19.9652 9.52196 20.6154C8.89505 21.2655 8.54286 22.1472 8.54286 23.0667V24.4H23.4571V23.0667C23.4571 22.1473 23.1049 21.2655 22.478 20.6154C21.8511 19.9652 21.0009 19.6 20.1143 19.6H11.8857Z" fill="white" fill-opacity="0.6"/>
<path fill-rule="evenodd" clip-rule="evenodd" d="M16 7.57895C14.1106 7.57895 12.5789 9.1106 12.5789 11C12.5789 12.8894 14.1106 14.4211 16 14.4211C17.8894 14.4211 19.4211 12.8894 19.4211 11C19.4211 9.1106 17.8894 7.57895 16 7.57895ZM11 11C11 8.23858 13.2386 6 16 6C18.7614 6 21 8.23858 21 11C21 13.7614 18.7614 16 16 16C13.2386 16 11 13.7614 11 11Z" fill="white" fill-opacity="0.6"/>
</svg>
