<svg width="32" height="32" viewBox="0 0 32 32" fill="none" xmlns="http://www.w3.org/2000/svg">
<path fill-rule="evenodd" clip-rule="evenodd" d="M15 8C11.134 8 8 11.134 8 15C8 18.866 11.134 22 15 22C18.866 22 22 18.866 22 15C22 11.134 18.866 8 15 8ZM6 15C6 10.0294 10.0294 6 15 6C19.9706 6 24 10.0294 24 15C24 19.9706 19.9706 24 15 24C10.0294 24 6 19.9706 6 15Z" fill="white"/>
<path fill-rule="evenodd" clip-rule="evenodd" d="M22.2929 22.2929C22.6834 21.9024 23.3166 21.9024 23.7071 22.2929L25.7071 24.2929C26.0976 24.6834 26.0976 25.3166 25.7071 25.7071C25.3166 26.0976 24.6834 26.0976 24.2929 25.7071L22.2929 23.7071C21.9024 23.3166 21.9024 22.6834 22.2929 22.2929Z" fill="white"/>
</svg>
